<svg  xmlns="http://www.w3.org/2000/svg" xmlns:xlink="http://www.w3.org/1999/xlink" width="957" height="300" viewBox="0 0 981 324"><path transform="translate(0 100)" d="M80.0781,-31.3965L80.0781,-55.2246L53.5156,-55.2246L53.5156,-31.3965L80.0781,-31.3965ZM45.7031,-31.3965L45.7031,-55.2246L19.7266,-55.2246L19.7266,-31.3965L45.7031,-31.3965ZM53.5156,6.98242L45.7031,6.98242L45.7031,-24.9023L19.7266,-24.9023L19.7266,-17.0898L12.1094,-17.0898L12.1094,-61.7188L45.7031,-61.7188L45.7031,-81.3965L53.5156,-81.3965L53.5156,-61.7188L87.6953,-61.7188L87.6953,-17.5781L80.0781,-17.5781L80.0781,-24.9023L53.5156,-24.9023L53.5156,6.98242Z"></path><path transform="translate(100 100)" d="M50.5371,-24.707Q61.377,-37.3047 66.0645,-56.3965L31.9336,-56.3965Q38.5742,-36.6699 50.5371,-24.707ZM12.4512,6.00586L7.12891,-1.41602Q31.4453,-7.27539 45.5078,-19.5801Q31.7383,-33.8379 24.4141,-56.3965L7.12891,-56.3965L7.12891,-62.8906L45.8496,-62.8906L45.8496,-80.8105L53.4668,-80.8105L53.4668,-62.8906L92.9688,-62.8906L92.9688,-56.3965L74.1699,-56.3965Q68.4082,-33.8867 56.0547,-19.873Q70.166,-9.13086 92.5293,-3.17383L86.9629,4.29688Q64.7949,-2.83203 50.7324,-14.7949Q34.7168,-0.878906 12.4512,6.00586Z"></path><path transform="translate(200 100)" d="M18.0176,6.98242L10.498,6.98242L10.498,-76.8066L89.3066,-76.8066L89.3066,-3.02734Q89.3066,1.70898 87.1094,3.4668Q84.7656,5.17578 78.7842,5.17578Q72.8027,5.17578 63.6719,4.58984L62.1094,-3.32031Q71.5332,-2.14844 78.1738,-2.14844Q81.8848,-2.14844 81.8848,-5.61523L81.8848,-70.3125L18.0176,-70.3125L18.0176,6.98242ZM24.3164,-5.17578L19.4824,-10.5957Q29.9316,-21.3379 34.375,-35.0098Q29.1992,-41.4551 21.3867,-49.1211L25.9766,-53.6133Q32.1289,-47.8027 36.6211,-42.6758Q38.3789,-50.5859 39.7949,-64.1113L46.3867,-62.207Q44.4336,-46.582 41.6016,-36.6211Q46.0938,-31.0059 50.6836,-24.707L45.8008,-19.1895Q42.6758,-24.0723 39.1113,-28.9062Q34.1309,-15.625 24.3164,-5.17578ZM50.0977,-4.10156L45.4102,-9.7168Q55.9082,-20.8008 61.084,-36.377Q54.2969,-44.873 49.5117,-49.4141L54.1992,-53.9062Q59.668,-48.2422 63.2812,-43.9941Q65.1367,-51.5625 66.8945,-64.209L73.584,-62.4023Q70.9961,-46.8262 68.4082,-37.793Q74.0234,-30.5176 79.0039,-23.3887L73.9746,-17.3828Q69.2871,-25.0488 65.8203,-29.9805Q60.4492,-15.1855 50.0977,-4.10156Z"></path><path transform="translate(300 100)" d="M54.6387,-0Q54.6387,4.24805 52.6367,5.71289Q50.6348,7.17773 45.2637,7.17773Q39.8926,7.17773 32.2266,6.39648L31.0059,-0.976562Q39.6484,0.195312 44.2871,0.195312Q47.1191,0.195312 47.1191,-2.29492L47.1191,-22.8027L6.10352,-22.8027L6.10352,-29.2969L46.6797,-29.2969L46.6797,-37.5977Q56.3477,-41.4062 64.1113,-46.7285L22.1191,-46.7285L22.1191,-53.3203L75.2441,-53.3203L78.6133,-49.707Q65.918,-39.7949 54.1016,-34.3262L54.1016,-29.2969L94.043,-29.2969L94.043,-22.8027L54.6387,-22.8027L54.6387,-0ZM90.2832,-49.0723L82.7637,-49.0723L82.7637,-62.9883L17.041,-62.9883L17.041,-49.0723L9.61914,-49.0723L9.61914,-69.2871L45.8008,-69.2871L45.8008,-83.0078L53.418,-83.0078L53.418,-69.2871L90.2832,-69.2871L90.2832,-49.0723Z"></path><path transform="translate(400 100)" d="M70.8008,6.98242L63.623,6.98242L63.623,-43.7012L40.5273,-43.7012L40.5273,-50.3906L63.623,-50.3906L63.623,-80.9082L70.8008,-80.9082L70.8008,-50.3906L94.7266,-50.3906L94.7266,-43.7012L70.8008,-43.7012L70.8008,6.98242ZM36.0352,-68.3594L12.8418,-68.3594L12.8418,-74.3652L36.0352,-74.3652L36.0352,-68.3594ZM43.1641,-16.5527L44.4824,-10.5469Q27.8809,-1.17188 14.1113,4.78516L10.4004,-2.00195Q15.0879,-3.71094 20.4102,-5.95703L20.4102,-43.8477L5.95703,-43.8477L5.95703,-50.5371L27.4902,-50.5371L27.4902,-9.0332Q34.8145,-12.3535 43.1641,-16.5527Z"></path><path transform="translate(500 100)" d="M80.7129,5.81055Q74.5117,5.81055 67.9199,5.07812L66.5039,-2.49023Q73.877,-1.36719 79.6875,-1.36719Q83.4961,-1.36719 83.4961,-5.07812L83.4961,-79.7852L90.3809,-79.7852L90.3809,-2.49023Q90.3809,5.81055 80.7129,5.81055ZM69.7754,-14.8926L63.0859,-14.8926L63.0859,-71.0938L69.7754,-71.0938L69.7754,-14.8926ZM43.8965,-61.1816Q39.1602,-71.1426 34.8145,-77.0996L40.2832,-80.1758Q46.3867,-71.4355 49.707,-64.6973L43.8965,-61.1816ZM9.81445,6.29883L4.98047,0.683594Q19.1895,-6.83594 29.9805,-18.9941Q25.4883,-32.3242 23.584,-47.998L5.17578,-46.6797L4.49219,-53.3203L22.9004,-54.5898Q21.8262,-64.9414 21.0938,-81.5918L27.7832,-81.5918Q28.6133,-63.1836 29.4922,-55.0781L54.6875,-56.8848L55.1758,-50.293L30.1758,-48.4863L30.3711,-46.582Q32.0801,-33.4473 34.668,-25Q41.1621,-33.8379 45.8008,-44.4824L51.8066,-41.2109Q45.3125,-27.1484 37.5,-17.3828Q39.9902,-11.3281 42.9199,-7.34863Q45.8496,-3.36914 46.582,-3.36914Q48.3887,-3.36914 49.9023,-18.1152L55.7129,-14.209Q52.832,5.51758 47.5098,5.51758Q40.8691,5.51758 32.8125,-11.9141Q22.2168,-0.878906 9.81445,6.29883Z"></path><path transform="translate(0 200)" d="M33.9844,-0.976562L25.0977,-0.976562L25.0977,-64.6973L-0.488281,-64.6973L-0.488281,-72.4121L60.4004,-72.4121L60.4004,-64.6973L33.9844,-64.6973L33.9844,-0.976562Z"></path><path transform="translate(60 200)" d="M52.2949,-0.976562L43.7012,-0.976562L43.7012,-31.8848Q43.7012,-44.5801 33.3008,-44.5801Q22.6074,-44.5801 17.6758,-31.8848L17.6758,-0.976562L9.08203,-0.976562L9.08203,-74.9023L17.6758,-74.9023L17.6758,-42.2852Q24.4629,-51.8066 35.1074,-51.8066Q52.2949,-51.8066 52.2949,-32.373L52.2949,-0.976562Z"></path><path transform="translate(121 200)" d="M43.0664,-31.2012Q42.334,-37.9883 38.3057,-41.9434Q34.2773,-45.8984 28.3691,-45.8984Q22.4609,-45.8984 17.9688,-40.4785Q14.8926,-36.8164 13.9648,-31.2012L43.0664,-31.2012ZM30.1758,0.488281Q19.0918,0.488281 11.9385,-6.66504Q4.78516,-13.8184 4.78516,-26.001Q4.78516,-38.1836 11.8896,-45.2881Q18.9941,-52.3926 28.7109,-52.3926Q38.4277,-52.3926 44.7754,-46.1914Q51.9043,-38.9648 51.9043,-26.9043L51.9043,-24.9023L13.4766,-24.9023Q13.916,-16.2598 18.9453,-11.2305Q23.9746,-6.20117 31.2012,-6.20117Q40.7227,-6.20117 46.2891,-15.0879L51.9043,-11.377Q44.8242,0.488281 30.1758,0.488281Z"></path><path transform="translate(178 200)" d=""></path><path transform="translate(205 200)" d="M28.125,-37.207Q48.4375,-37.207 48.4375,-51.8066Q48.4375,-65.332 29.5898,-65.332L18.3105,-65.332L18.3105,-37.207L28.125,-37.207ZM18.3105,-0.976562L9.52148,-0.976562L9.52148,-72.4121L30.3223,-72.4121Q57.6172,-72.4121 57.6172,-51.9043Q57.6172,-30.2246 29.7852,-30.2246L18.3105,-30.2246L18.3105,-0.976562Z"></path><path transform="translate(267 200)" d="M17.3828,-0.976562L8.78906,-0.976562L8.78906,-50.7812L16.8945,-50.7812L16.5039,-35.9863L16.6992,-35.9863Q22.2168,-52.1973 32.7637,-52.1973Q34.4727,-52.1973 36.084,-51.8066L34.5703,-43.2617Q32.9102,-43.6035 31.5918,-43.6035Q25.8301,-43.6035 22.0703,-38.1836Q17.3828,-31.3477 17.3828,-26.1719L17.3828,-0.976562Z"></path><path transform="translate(304 200)" d="M19.2871,-10.6934Q23.6816,-6.29883 30.0537,-6.29883Q36.4258,-6.29883 40.7715,-10.791Q46.1914,-16.2109 46.1914,-25.8301Q46.1914,-35.4492 40.6738,-41.1133Q36.1816,-45.6055 29.9561,-45.6055Q23.7305,-45.6055 19.3848,-41.1133Q13.8672,-35.5957 13.8672,-25.8545Q13.8672,-16.1133 19.2871,-10.6934ZM29.9805,0.488281Q19.1895,0.488281 12.0361,-6.64062Q4.88281,-13.7695 4.88281,-25.7324Q4.88281,-37.6953 12.1338,-44.9463Q19.3848,-52.1973 29.9561,-52.1973Q40.5273,-52.1973 47.8516,-44.9463Q55.1758,-37.6953 55.1758,-25.7812Q55.1758,-13.8672 47.9736,-6.68945Q40.7715,0.488281 29.9805,0.488281Z"></path><path transform="translate(364 200)" d="M-0.732422,19.5801L-3.61328,12.4023Q1.85547,11.6699 4.78516,9.52148Q9.08203,6.25 9.08203,-2.49023L9.08203,-50.7812L17.6758,-50.7812L17.6758,-2.39258Q17.6758,9.91211 10.9863,15.0879Q6.93359,18.2617 -0.732422,19.5801ZM18.3105,-61.377L8.49609,-61.377L8.49609,-71.3867L18.3105,-71.3867L18.3105,-61.377Z"></path><path transform="translate(391 200)" d="M43.0664,-31.2012Q42.334,-37.9883 38.3057,-41.9434Q34.2773,-45.8984 28.3691,-45.8984Q22.4609,-45.8984 17.9688,-40.4785Q14.8926,-36.8164 13.9648,-31.2012L43.0664,-31.2012ZM30.1758,0.488281Q19.0918,0.488281 11.9385,-6.66504Q4.78516,-13.8184 4.78516,-26.001Q4.78516,-38.1836 11.8896,-45.2881Q18.9941,-52.3926 28.7109,-52.3926Q38.4277,-52.3926 44.7754,-46.1914Q51.9043,-38.9648 51.9043,-26.9043L51.9043,-24.9023L13.4766,-24.9023Q13.916,-16.2598 18.9453,-11.2305Q23.9746,-6.20117 31.2012,-6.20117Q40.7227,-6.20117 46.2891,-15.0879L51.9043,-11.377Q44.8242,0.488281 30.1758,0.488281Z"></path><path transform="translate(448 200)" d="M29.6875,0.488281Q19.1895,0.488281 12.0361,-6.71387Q4.88281,-13.916 4.88281,-25.9277Q4.88281,-37.9395 12.3047,-45.5078Q19.0918,-52.2949 29.3945,-52.2949Q43.9453,-52.2949 50.0977,-39.6973L43.1641,-36.084Q38.8184,-45.3125 29.6875,-45.3125Q23.6816,-45.3125 19.2871,-40.918Q13.7695,-35.4004 13.7695,-26.0498Q13.7695,-16.6992 18.7744,-11.6943Q23.7793,-6.68945 30.5664,-6.68945Q39.7949,-6.68945 44.4824,-15.8691L51.0742,-12.2559Q44.2871,0.488281 29.6875,0.488281Z"></path><path transform="translate(502 200)" d="M21.8262,0.0976562Q10.2051,0.0976562 10.2051,-12.9883L10.2051,-44.6777L3.41797,-44.6777L3.41797,-50.7812L10.2051,-50.7812L10.2051,-61.9629L18.4082,-66.0645L18.4082,-50.7812L32.2266,-50.7812L32.2266,-44.6777L18.4082,-44.6777L18.4082,-14.1602Q18.4082,-6.49414 23.6328,-6.49414Q27.1484,-6.49414 30.3223,-9.17969L33.2031,-3.75977Q27.6367,0.0976562 21.8262,0.0976562Z"></path><path transform="translate(537 200)" d=""></path><path transform="translate(564 200)" d="M18.3105,-0.976562L9.52148,-0.976562L9.52148,-72.4121L54.1992,-72.4121L54.1992,-64.6973L18.3105,-64.6973L18.3105,-41.5039L50.0977,-41.5039L50.0977,-34.1797L18.3105,-34.1797L18.3105,-0.976562Z"></path><path transform="translate(621 200)" d="M19.2871,-10.6934Q23.6816,-6.29883 30.0537,-6.29883Q36.4258,-6.29883 40.7715,-10.791Q46.1914,-16.2109 46.1914,-25.8301Q46.1914,-35.4492 40.6738,-41.1133Q36.1816,-45.6055 29.9561,-45.6055Q23.7305,-45.6055 19.3848,-41.1133Q13.8672,-35.5957 13.8672,-25.8545Q13.8672,-16.1133 19.2871,-10.6934ZM29.9805,0.488281Q19.1895,0.488281 12.0361,-6.64062Q4.88281,-13.7695 4.88281,-25.7324Q4.88281,-37.6953 12.1338,-44.9463Q19.3848,-52.1973 29.9561,-52.1973Q40.5273,-52.1973 47.8516,-44.9463Q55.1758,-37.6953 55.1758,-25.7812Q55.1758,-13.8672 47.9736,-6.68945Q40.7715,0.488281 29.9805,0.488281Z"></path><path transform="translate(681 200)" d="M17.3828,-0.976562L8.78906,-0.976562L8.78906,-50.7812L16.8945,-50.7812L16.5039,-35.9863L16.6992,-35.9863Q22.2168,-52.1973 32.7637,-52.1973Q34.4727,-52.1973 36.084,-51.8066L34.5703,-43.2617Q32.9102,-43.6035 31.5918,-43.6035Q25.8301,-43.6035 22.0703,-38.1836Q17.3828,-31.3477 17.3828,-26.1719L17.3828,-0.976562Z"></path><path transform="translate(718 200)" d=""></path><path transform="translate(745 200)" d="M69.7754,-0L63.0859,-0L50.293,-43.1152Q48.1934,-50.1465 46.582,-58.3984L46.2891,-58.3984Q44.7754,-51.3672 42.3828,-43.1152L29.4922,-0L22.7051,-0L0.683594,-72.4121L10.498,-72.4121L21.9727,-31.8848Q24.5605,-22.5586 26.4648,-14.502L26.8066,-14.502Q28.418,-21.9727 31.2988,-31.8848L42.5781,-71.1914L50.1953,-71.1914L62.0605,-31.8848Q64.502,-24.0723 66.6992,-14.4043L66.9922,-14.4043Q69.3848,-25.0488 71.2891,-31.8848L82.666,-72.4121L91.9922,-72.4121L69.7754,-0Z"></path><path transform="translate(838 200)" d="M43.0664,-31.2012Q42.334,-37.9883 38.3057,-41.9434Q34.2773,-45.8984 28.3691,-45.8984Q22.4609,-45.8984 17.9688,-40.4785Q14.8926,-36.8164 13.9648,-31.2012L43.0664,-31.2012ZM30.1758,0.488281Q19.0918,0.488281 11.9385,-6.66504Q4.78516,-13.8184 4.78516,-26.001Q4.78516,-38.1836 11.8896,-45.2881Q18.9941,-52.3926 28.7109,-52.3926Q38.4277,-52.3926 44.7754,-46.1914Q51.9043,-38.9648 51.9043,-26.9043L51.9043,-24.9023L13.4766,-24.9023Q13.916,-16.2598 18.9453,-11.2305Q23.9746,-6.20117 31.2012,-6.20117Q40.7227,-6.20117 46.2891,-15.0879L51.9043,-11.377Q44.8242,0.488281 30.1758,0.488281Z"></path><path transform="translate(895 200)" d="M23.877,-9.375Q28.1738,-6.29883 33.5205,-6.29883Q38.8672,-6.29883 42.8711,-10.3027Q48.1934,-15.7715 48.1934,-25.0244Q48.1934,-34.2773 43.8232,-39.7949Q39.4531,-45.3125 33.4717,-45.3125Q27.4902,-45.3125 22.5342,-40.3564Q17.5781,-35.4004 17.5781,-31.2012L17.5781,-19.5801Q17.5781,-13.8672 23.877,-9.375ZM49.8535,-5.81055Q43.5547,0.488281 33.96,0.488281Q24.3652,0.488281 16.9922,-8.05664L15.7715,-0.683594L9.08203,-0.683594L9.08203,-74.9023L17.5781,-74.9023L17.5781,-42.6758Q24.2188,-52.1973 34.668,-52.1973Q43.5547,-52.1973 49.8535,-45.8984Q57.1777,-38.5742 57.1777,-25.8301Q57.1777,-13.0859 49.8535,-5.81055Z"></path></svg>